<mxfile host="Electron" modified="2023-07-12T01:50:53.602Z" agent="Mozilla/5.0 (Macintosh; Intel Mac OS X 10_15_7) AppleWebKit/537.36 (KHTML, like Gecko) draw.io/21.6.1 Chrome/112.0.5615.204 Electron/24.6.1 Safari/537.36" etag="ctgQPvkPb8nXb8O736DR" version="21.6.1" type="device">
  <diagram id="C5RBs43oDa-KdzZeNtuy" name="Page-1">
    <mxGraphModel dx="1234" dy="844" grid="1" gridSize="10" guides="1" tooltips="1" connect="1" arrows="1" fold="1" page="1" pageScale="1" pageWidth="1169" pageHeight="827" math="0" shadow="0">
      <root>
        <mxCell id="WIyWlLk6GJQsqaUBKTNV-0" />
        <mxCell id="WIyWlLk6GJQsqaUBKTNV-1" parent="WIyWlLk6GJQsqaUBKTNV-0" />
        <mxCell id="tVD_9pRI_shdXlnxGO-L-10" value="" style="swimlane;startSize=0;rounded=1;labelBackgroundColor=none;fillColor=#5D7F99;strokeColor=#D0CEE2;fontColor=#1A1A1A;" parent="WIyWlLk6GJQsqaUBKTNV-1" vertex="1">
          <mxGeometry x="40" y="20" width="1110" height="790" as="geometry" />
        </mxCell>
        <mxCell id="4o0ombR6q59JR-e9YiNX-0" value="&lt;font style=&quot;font-size: 18px&quot;&gt;&amp;lt;Mac&amp;gt;&lt;br&gt;&lt;br&gt;Reality&lt;br&gt;Composer&lt;br&gt;Pro&lt;br&gt;&lt;/font&gt;" style="rounded=1;whiteSpace=wrap;html=1;strokeWidth=3;labelBackgroundColor=none;fillColor=#5D7F99;strokeColor=#D0CEE2;fontColor=#1A1A1A;" vertex="1" parent="tVD_9pRI_shdXlnxGO-L-10">
          <mxGeometry x="610" y="470" width="120" height="140" as="geometry" />
        </mxCell>
        <mxCell id="RQq28LpHc_fImf_RmgB1-8" value="&lt;font style=&quot;font-size: 18px&quot;&gt;&amp;lt;iOS&amp;gt;&lt;br&gt;&lt;br&gt;AR&lt;br&gt;app&lt;br&gt;&lt;/font&gt;" style="rounded=1;whiteSpace=wrap;html=1;strokeWidth=3;labelBackgroundColor=none;fillColor=#5D7F99;strokeColor=#D0CEE2;fontColor=#1A1A1A;" parent="tVD_9pRI_shdXlnxGO-L-10" vertex="1">
          <mxGeometry x="960" y="310" width="120" height="160" as="geometry" />
        </mxCell>
        <mxCell id="4o0ombR6q59JR-e9YiNX-12" value="&lt;font style=&quot;font-size: 18px&quot;&gt;&amp;lt;visionOS&amp;gt;&lt;br&gt;&lt;br&gt;app&lt;br&gt;&lt;/font&gt;" style="rounded=1;whiteSpace=wrap;html=1;strokeWidth=3;labelBackgroundColor=none;fillColor=#5D7F99;strokeColor=#D0CEE2;fontColor=#1A1A1A;" vertex="1" parent="tVD_9pRI_shdXlnxGO-L-10">
          <mxGeometry x="960" y="490" width="120" height="160" as="geometry" />
        </mxCell>
        <mxCell id="4o0ombR6q59JR-e9YiNX-15" value="HEIC / USDZ" style="edgeLabel;html=1;align=center;verticalAlign=middle;resizable=0;points=[];fontSize=18;spacingBottom=23;rounded=1;labelBackgroundColor=none;fontColor=#1A1A1A;" vertex="1" connectable="0" parent="tVD_9pRI_shdXlnxGO-L-10">
          <mxGeometry x="200" y="757" as="geometry" />
        </mxCell>
        <mxCell id="RQq28LpHc_fImf_RmgB1-33" value="" style="rounded=1;whiteSpace=wrap;html=1;fontSize=18;strokeWidth=2;fillColor=none;dashed=1;labelBackgroundColor=none;strokeColor=#808080;fontColor=#1A1A1A;" parent="tVD_9pRI_shdXlnxGO-L-10" vertex="1">
          <mxGeometry x="60" y="590" width="690" height="180" as="geometry" />
        </mxCell>
        <mxCell id="tVD_9pRI_shdXlnxGO-L-0" value="assets_workflow_r2.drawio, July 2023, @AtarayoSD, CC0" style="text;html=1;strokeColor=none;fillColor=none;align=right;verticalAlign=middle;whiteSpace=wrap;rounded=1;labelBackgroundColor=none;fontColor=#808080;" parent="tVD_9pRI_shdXlnxGO-L-10" vertex="1">
          <mxGeometry x="760" y="750" width="340" height="30" as="geometry" />
        </mxCell>
        <mxCell id="4o0ombR6q59JR-e9YiNX-16" value="3D Texture Painting" style="text;html=1;strokeColor=none;fillColor=none;align=center;verticalAlign=middle;whiteSpace=wrap;rounded=1;dashed=1;fontSize=18;labelBackgroundColor=none;fontColor=#808080;" vertex="1" parent="tVD_9pRI_shdXlnxGO-L-10">
          <mxGeometry x="160" y="10" width="160" height="30" as="geometry" />
        </mxCell>
        <mxCell id="RQq28LpHc_fImf_RmgB1-0" value="&lt;font style=&quot;font-size: 18px&quot;&gt;&amp;lt;Win,Mac&amp;gt;&lt;br&gt;&lt;br&gt;DCC Tools&lt;br&gt;(ex.Blender)&lt;br&gt;&lt;/font&gt;" style="rounded=1;whiteSpace=wrap;html=1;strokeWidth=3;labelBackgroundColor=none;fillColor=#5D7F99;strokeColor=#D0CEE2;fontColor=#1A1A1A;" parent="WIyWlLk6GJQsqaUBKTNV-1" vertex="1">
          <mxGeometry x="120" y="230" width="120" height="320" as="geometry" />
        </mxCell>
        <mxCell id="RQq28LpHc_fImf_RmgB1-1" value="&lt;font style=&quot;font-size: 18px&quot;&gt;&amp;lt;Mac&amp;gt;&lt;br&gt;&lt;br&gt;Reality&lt;br&gt;Composer&lt;br&gt;&lt;/font&gt;" style="rounded=1;whiteSpace=wrap;html=1;strokeWidth=3;labelBackgroundColor=none;fillColor=#5D7F99;strokeColor=#D0CEE2;fontColor=#1A1A1A;" parent="WIyWlLk6GJQsqaUBKTNV-1" vertex="1">
          <mxGeometry x="560" y="240" width="120" height="110" as="geometry" />
        </mxCell>
        <mxCell id="RQq28LpHc_fImf_RmgB1-2" value="" style="endArrow=block;html=1;rounded=1;fontSize=18;exitX=1.001;exitY=0.202;exitDx=0;exitDy=0;entryX=0;entryY=0.5;entryDx=0;entryDy=0;strokeWidth=4;endFill=1;exitPerimeter=0;labelBackgroundColor=none;strokeColor=#736CA8;fontColor=default;" parent="WIyWlLk6GJQsqaUBKTNV-1" source="RQq28LpHc_fImf_RmgB1-0" target="RQq28LpHc_fImf_RmgB1-1" edge="1">
          <mxGeometry width="50" height="50" relative="1" as="geometry">
            <mxPoint x="540" y="660" as="sourcePoint" />
            <mxPoint x="590" y="610" as="targetPoint" />
          </mxGeometry>
        </mxCell>
        <mxCell id="RQq28LpHc_fImf_RmgB1-3" value="USDZ&lt;br&gt;" style="edgeLabel;html=1;align=center;verticalAlign=middle;resizable=0;points=[];fontSize=18;spacingBottom=23;rounded=1;labelBackgroundColor=none;fontColor=#1A1A1A;" parent="RQq28LpHc_fImf_RmgB1-2" vertex="1" connectable="0">
          <mxGeometry x="0.0029" y="2" relative="1" as="geometry">
            <mxPoint x="-120" y="-3" as="offset" />
          </mxGeometry>
        </mxCell>
        <mxCell id="RQq28LpHc_fImf_RmgB1-4" value="&lt;font style=&quot;font-size: 18px&quot;&gt;&amp;lt;Mac&amp;gt;&lt;br&gt;&lt;br&gt;Reality&lt;br&gt;Converter&lt;br&gt;&lt;/font&gt;" style="rounded=1;whiteSpace=wrap;html=1;strokeWidth=3;labelBackgroundColor=none;fillColor=#5D7F99;strokeColor=#D0CEE2;fontColor=#1A1A1A;" parent="WIyWlLk6GJQsqaUBKTNV-1" vertex="1">
          <mxGeometry x="360" y="340" width="120" height="100" as="geometry" />
        </mxCell>
        <mxCell id="RQq28LpHc_fImf_RmgB1-5" value="&lt;font style=&quot;font-size: 18px&quot;&gt;&amp;lt;iOS&amp;gt;&lt;br&gt;&lt;br&gt;Photo&lt;br&gt;Capture Apps&lt;br&gt;PG Apps&lt;br&gt;&lt;br&gt;&lt;/font&gt;" style="rounded=1;whiteSpace=wrap;html=1;strokeWidth=3;labelBackgroundColor=none;fillColor=#5D7F99;strokeColor=#D0CEE2;fontColor=#1A1A1A;" parent="WIyWlLk6GJQsqaUBKTNV-1" vertex="1">
          <mxGeometry x="120" y="630" width="120" height="120" as="geometry" />
        </mxCell>
        <mxCell id="RQq28LpHc_fImf_RmgB1-6" value="&lt;font style=&quot;font-size: 18px&quot;&gt;&amp;lt;Mac&amp;gt;&lt;br&gt;&lt;br&gt;Photogrammetry&lt;br&gt;Apps&lt;br&gt;&lt;/font&gt;" style="rounded=1;whiteSpace=wrap;html=1;strokeWidth=3;labelBackgroundColor=none;fillColor=#5D7F99;strokeColor=#D0CEE2;fontColor=#1A1A1A;" parent="WIyWlLk6GJQsqaUBKTNV-1" vertex="1">
          <mxGeometry x="350" y="630" width="170" height="120" as="geometry" />
        </mxCell>
        <mxCell id="RQq28LpHc_fImf_RmgB1-7" value="&lt;font style=&quot;font-size: 18px&quot;&gt;&amp;lt;Mac&amp;gt;&lt;br&gt;&lt;br&gt;Xcode&lt;br&gt;&lt;/font&gt;" style="rounded=1;whiteSpace=wrap;html=1;strokeWidth=3;labelBackgroundColor=none;fillColor=#5D7F99;strokeColor=#D0CEE2;fontColor=#1A1A1A;" parent="WIyWlLk6GJQsqaUBKTNV-1" vertex="1">
          <mxGeometry x="840" y="230" width="120" height="520" as="geometry" />
        </mxCell>
        <mxCell id="RQq28LpHc_fImf_RmgB1-9" value="" style="endArrow=block;html=1;rounded=1;fontSize=18;exitX=0.5;exitY=0;exitDx=0;exitDy=0;entryX=0.75;entryY=0;entryDx=0;entryDy=0;strokeWidth=4;endFill=1;labelBackgroundColor=none;strokeColor=#736CA8;fontColor=default;" parent="WIyWlLk6GJQsqaUBKTNV-1" source="RQq28LpHc_fImf_RmgB1-1" target="RQq28LpHc_fImf_RmgB1-0" edge="1">
          <mxGeometry width="50" height="50" relative="1" as="geometry">
            <mxPoint x="690" y="190" as="sourcePoint" />
            <mxPoint x="990" y="190" as="targetPoint" />
            <Array as="points">
              <mxPoint x="620" y="190" />
              <mxPoint x="210" y="190" />
            </Array>
          </mxGeometry>
        </mxCell>
        <mxCell id="RQq28LpHc_fImf_RmgB1-11" value="" style="endArrow=block;html=1;rounded=1;fontSize=18;exitX=1;exitY=0.5;exitDx=0;exitDy=0;entryX=0;entryY=0.5;entryDx=0;entryDy=0;strokeWidth=4;endFill=1;labelBackgroundColor=none;strokeColor=#736CA8;fontColor=default;" parent="WIyWlLk6GJQsqaUBKTNV-1" source="RQq28LpHc_fImf_RmgB1-0" target="RQq28LpHc_fImf_RmgB1-4" edge="1">
          <mxGeometry width="50" height="50" relative="1" as="geometry">
            <mxPoint x="310" y="305" as="sourcePoint" />
            <mxPoint x="610" y="305" as="targetPoint" />
          </mxGeometry>
        </mxCell>
        <mxCell id="RQq28LpHc_fImf_RmgB1-12" value="OBJ / glTF" style="edgeLabel;html=1;align=center;verticalAlign=middle;resizable=0;points=[];fontSize=18;spacingBottom=23;rounded=1;labelBackgroundColor=none;fontColor=#1A1A1A;" parent="RQq28LpHc_fImf_RmgB1-11" vertex="1" connectable="0">
          <mxGeometry x="0.0029" y="2" relative="1" as="geometry">
            <mxPoint as="offset" />
          </mxGeometry>
        </mxCell>
        <mxCell id="RQq28LpHc_fImf_RmgB1-13" value="" style="endArrow=block;html=1;rounded=1;fontSize=18;exitX=1;exitY=0.25;exitDx=0;exitDy=0;strokeWidth=4;endFill=1;entryX=0;entryY=0.75;entryDx=0;entryDy=0;labelBackgroundColor=none;strokeColor=#736CA8;fontColor=default;" parent="WIyWlLk6GJQsqaUBKTNV-1" source="RQq28LpHc_fImf_RmgB1-4" target="RQq28LpHc_fImf_RmgB1-1" edge="1">
          <mxGeometry width="50" height="50" relative="1" as="geometry">
            <mxPoint x="310" y="305" as="sourcePoint" />
            <mxPoint x="610" y="330" as="targetPoint" />
          </mxGeometry>
        </mxCell>
        <mxCell id="RQq28LpHc_fImf_RmgB1-14" value="USDZ&lt;br&gt;" style="edgeLabel;html=1;align=center;verticalAlign=middle;resizable=0;points=[];fontSize=18;spacingBottom=23;rounded=1;labelBackgroundColor=none;fontColor=#1A1A1A;" parent="RQq28LpHc_fImf_RmgB1-13" vertex="1" connectable="0">
          <mxGeometry x="0.0029" y="2" relative="1" as="geometry">
            <mxPoint x="-20" y="-2" as="offset" />
          </mxGeometry>
        </mxCell>
        <mxCell id="RQq28LpHc_fImf_RmgB1-15" value="" style="endArrow=block;html=1;rounded=1;fontSize=18;exitX=1;exitY=0.5;exitDx=0;exitDy=0;strokeWidth=4;endFill=1;entryX=-0.008;entryY=0.127;entryDx=0;entryDy=0;entryPerimeter=0;labelBackgroundColor=none;strokeColor=#736CA8;fontColor=default;" parent="WIyWlLk6GJQsqaUBKTNV-1" source="RQq28LpHc_fImf_RmgB1-1" target="RQq28LpHc_fImf_RmgB1-7" edge="1">
          <mxGeometry width="50" height="50" relative="1" as="geometry">
            <mxPoint x="780" y="227.5" as="sourcePoint" />
            <mxPoint x="860" y="150" as="targetPoint" />
          </mxGeometry>
        </mxCell>
        <mxCell id="RQq28LpHc_fImf_RmgB1-16" value="REALITY&lt;br&gt;/ RCPROJECT" style="edgeLabel;html=1;align=center;verticalAlign=middle;resizable=0;points=[];fontSize=18;spacingBottom=52;rounded=1;labelBackgroundColor=none;fontColor=#1A1A1A;" parent="RQq28LpHc_fImf_RmgB1-15" vertex="1" connectable="0">
          <mxGeometry x="0.0029" y="2" relative="1" as="geometry">
            <mxPoint y="-4" as="offset" />
          </mxGeometry>
        </mxCell>
        <mxCell id="RQq28LpHc_fImf_RmgB1-17" value="" style="endArrow=block;html=1;rounded=1;fontSize=18;strokeWidth=4;endFill=1;entryX=0.001;entryY=0.461;entryDx=0;entryDy=0;exitX=1;exitY=0.75;exitDx=0;exitDy=0;entryPerimeter=0;labelBackgroundColor=none;strokeColor=#736CA8;fontColor=default;" parent="WIyWlLk6GJQsqaUBKTNV-1" source="RQq28LpHc_fImf_RmgB1-0" target="RQq28LpHc_fImf_RmgB1-7" edge="1">
          <mxGeometry width="50" height="50" relative="1" as="geometry">
            <mxPoint x="360" y="510" as="sourcePoint" />
            <mxPoint x="600" y="637.5" as="targetPoint" />
          </mxGeometry>
        </mxCell>
        <mxCell id="RQq28LpHc_fImf_RmgB1-18" value="USDZ&lt;br&gt;" style="edgeLabel;html=1;align=center;verticalAlign=middle;resizable=0;points=[];fontSize=18;spacingBottom=23;rounded=1;labelBackgroundColor=none;fontColor=#1A1A1A;" parent="RQq28LpHc_fImf_RmgB1-17" vertex="1" connectable="0">
          <mxGeometry x="0.0029" y="2" relative="1" as="geometry">
            <mxPoint x="-251" as="offset" />
          </mxGeometry>
        </mxCell>
        <mxCell id="RQq28LpHc_fImf_RmgB1-20" value="" style="endArrow=block;html=1;rounded=1;fontSize=18;strokeWidth=4;endFill=1;entryX=-0.018;entryY=0.885;entryDx=0;entryDy=0;exitX=1;exitY=0.5;exitDx=0;exitDy=0;entryPerimeter=0;labelBackgroundColor=none;strokeColor=#736CA8;fontColor=default;" parent="WIyWlLk6GJQsqaUBKTNV-1" source="RQq28LpHc_fImf_RmgB1-6" target="RQq28LpHc_fImf_RmgB1-7" edge="1">
          <mxGeometry width="50" height="50" relative="1" as="geometry">
            <mxPoint x="560" y="677.5" as="sourcePoint" />
            <mxPoint x="1060" y="670" as="targetPoint" />
          </mxGeometry>
        </mxCell>
        <mxCell id="RQq28LpHc_fImf_RmgB1-21" value="USDZ&lt;br&gt;" style="edgeLabel;html=1;align=center;verticalAlign=middle;resizable=0;points=[];fontSize=18;spacingBottom=23;rounded=1;labelBackgroundColor=none;fontColor=#1A1A1A;" parent="RQq28LpHc_fImf_RmgB1-20" vertex="1" connectable="0">
          <mxGeometry x="0.0029" y="2" relative="1" as="geometry">
            <mxPoint x="-119" y="2" as="offset" />
          </mxGeometry>
        </mxCell>
        <mxCell id="RQq28LpHc_fImf_RmgB1-22" value="" style="endArrow=block;html=1;rounded=1;fontSize=18;strokeWidth=4;endFill=1;entryX=0.5;entryY=1;entryDx=0;entryDy=0;exitX=1;exitY=0.25;exitDx=0;exitDy=0;labelBackgroundColor=none;strokeColor=#736CA8;fontColor=default;" parent="WIyWlLk6GJQsqaUBKTNV-1" source="RQq28LpHc_fImf_RmgB1-6" target="RQq28LpHc_fImf_RmgB1-1" edge="1">
          <mxGeometry width="50" height="50" relative="1" as="geometry">
            <mxPoint x="530" y="700" as="sourcePoint" />
            <mxPoint x="810" y="537.5" as="targetPoint" />
            <Array as="points">
              <mxPoint x="620" y="660" />
            </Array>
          </mxGeometry>
        </mxCell>
        <mxCell id="RQq28LpHc_fImf_RmgB1-23" value="USDZ&lt;br&gt;" style="edgeLabel;html=1;align=center;verticalAlign=middle;resizable=0;points=[];fontSize=18;spacingBottom=23;rounded=1;labelBackgroundColor=none;fontColor=#1A1A1A;" parent="RQq28LpHc_fImf_RmgB1-22" vertex="1" connectable="0">
          <mxGeometry x="0.0029" y="2" relative="1" as="geometry">
            <mxPoint x="-58" y="96" as="offset" />
          </mxGeometry>
        </mxCell>
        <mxCell id="RQq28LpHc_fImf_RmgB1-24" value="" style="endArrow=block;html=1;rounded=1;fontSize=18;strokeWidth=4;endFill=1;entryX=1.021;entryY=0.882;entryDx=0;entryDy=0;exitX=0.5;exitY=0;exitDx=0;exitDy=0;entryPerimeter=0;labelBackgroundColor=none;strokeColor=#736CA8;fontColor=default;" parent="WIyWlLk6GJQsqaUBKTNV-1" source="RQq28LpHc_fImf_RmgB1-6" target="RQq28LpHc_fImf_RmgB1-0" edge="1">
          <mxGeometry width="50" height="50" relative="1" as="geometry">
            <mxPoint x="530" y="670" as="sourcePoint" />
            <mxPoint x="670" y="360" as="targetPoint" />
            <Array as="points">
              <mxPoint x="435" y="512" />
            </Array>
          </mxGeometry>
        </mxCell>
        <mxCell id="RQq28LpHc_fImf_RmgB1-25" value="USDZ&lt;br&gt;" style="edgeLabel;html=1;align=center;verticalAlign=middle;resizable=0;points=[];fontSize=18;spacingBottom=23;rounded=1;labelBackgroundColor=none;fontColor=#1A1A1A;" parent="RQq28LpHc_fImf_RmgB1-24" vertex="1" connectable="0">
          <mxGeometry x="0.0029" y="2" relative="1" as="geometry">
            <mxPoint x="3" y="106" as="offset" />
          </mxGeometry>
        </mxCell>
        <mxCell id="RQq28LpHc_fImf_RmgB1-26" value="" style="endArrow=block;html=1;rounded=1;fontSize=18;strokeWidth=4;endFill=1;entryX=-0.018;entryY=0.364;entryDx=0;entryDy=0;entryPerimeter=0;labelBackgroundColor=none;strokeColor=#736CA8;fontColor=default;" parent="WIyWlLk6GJQsqaUBKTNV-1" target="RQq28LpHc_fImf_RmgB1-7" edge="1">
          <mxGeometry width="50" height="50" relative="1" as="geometry">
            <mxPoint x="480" y="419" as="sourcePoint" />
            <mxPoint x="610" y="332.5" as="targetPoint" />
          </mxGeometry>
        </mxCell>
        <mxCell id="RQq28LpHc_fImf_RmgB1-27" value="USDZ&lt;br&gt;" style="edgeLabel;html=1;align=center;verticalAlign=middle;resizable=0;points=[];fontSize=18;spacingBottom=23;rounded=1;labelBackgroundColor=none;fontColor=#1A1A1A;" parent="RQq28LpHc_fImf_RmgB1-26" vertex="1" connectable="0">
          <mxGeometry x="0.0029" y="2" relative="1" as="geometry">
            <mxPoint x="-130" as="offset" />
          </mxGeometry>
        </mxCell>
        <mxCell id="RQq28LpHc_fImf_RmgB1-29" value="" style="endArrow=block;html=1;rounded=1;fontSize=18;strokeWidth=4;endFill=1;entryX=0;entryY=0.5;entryDx=0;entryDy=0;exitX=1;exitY=0.5;exitDx=0;exitDy=0;labelBackgroundColor=none;strokeColor=#736CA8;fontColor=default;" parent="WIyWlLk6GJQsqaUBKTNV-1" source="RQq28LpHc_fImf_RmgB1-5" target="RQq28LpHc_fImf_RmgB1-6" edge="1">
          <mxGeometry width="50" height="50" relative="1" as="geometry">
            <mxPoint x="470" y="640" as="sourcePoint" />
            <mxPoint x="310" y="560" as="targetPoint" />
          </mxGeometry>
        </mxCell>
        <mxCell id="RQq28LpHc_fImf_RmgB1-30" value="HEIC" style="edgeLabel;html=1;align=center;verticalAlign=middle;resizable=0;points=[];fontSize=18;spacingBottom=23;rounded=1;labelBackgroundColor=none;fontColor=#1A1A1A;" parent="RQq28LpHc_fImf_RmgB1-29" vertex="1" connectable="0">
          <mxGeometry x="0.0029" y="2" relative="1" as="geometry">
            <mxPoint as="offset" />
          </mxGeometry>
        </mxCell>
        <mxCell id="RQq28LpHc_fImf_RmgB1-31" value="" style="endArrow=block;html=1;rounded=1;fontSize=18;strokeWidth=4;endFill=1;entryX=0;entryY=0.5;entryDx=0;entryDy=0;labelBackgroundColor=none;strokeColor=#736CA8;fontColor=default;exitX=1;exitY=0.346;exitDx=0;exitDy=0;exitPerimeter=0;" parent="WIyWlLk6GJQsqaUBKTNV-1" edge="1" target="RQq28LpHc_fImf_RmgB1-8" source="RQq28LpHc_fImf_RmgB1-7">
          <mxGeometry width="50" height="50" relative="1" as="geometry">
            <mxPoint x="960" y="470" as="sourcePoint" />
            <mxPoint x="1000.0000000000001" y="469.68999999999994" as="targetPoint" />
          </mxGeometry>
        </mxCell>
        <mxCell id="RQq28LpHc_fImf_RmgB1-34" value="Photogrammetry" style="text;html=1;strokeColor=none;fillColor=none;align=center;verticalAlign=middle;whiteSpace=wrap;rounded=1;dashed=1;fontSize=18;labelBackgroundColor=none;fontColor=#808080;" parent="WIyWlLk6GJQsqaUBKTNV-1" vertex="1">
          <mxGeometry x="110" y="580" width="160" height="30" as="geometry" />
        </mxCell>
        <mxCell id="tVD_9pRI_shdXlnxGO-L-1" value="&lt;font style=&quot;font-size: 18px&quot;&gt;&amp;lt;iPad&amp;gt;&lt;br&gt;&lt;br&gt;Procreate&lt;br&gt;&lt;/font&gt;" style="rounded=1;whiteSpace=wrap;html=1;strokeWidth=3;labelBackgroundColor=none;fillColor=#5D7F99;strokeColor=#D0CEE2;fontColor=#1A1A1A;" parent="WIyWlLk6GJQsqaUBKTNV-1" vertex="1">
          <mxGeometry x="360" y="40" width="120" height="110" as="geometry" />
        </mxCell>
        <mxCell id="tVD_9pRI_shdXlnxGO-L-2" value="" style="endArrow=block;html=1;rounded=1;fontSize=18;exitX=0.5;exitY=0;exitDx=0;exitDy=0;strokeWidth=4;endFill=1;entryX=0.5;entryY=1;entryDx=0;entryDy=0;labelBackgroundColor=none;strokeColor=#736CA8;fontColor=default;" parent="WIyWlLk6GJQsqaUBKTNV-1" source="RQq28LpHc_fImf_RmgB1-4" target="tVD_9pRI_shdXlnxGO-L-1" edge="1">
          <mxGeometry width="50" height="50" relative="1" as="geometry">
            <mxPoint x="420" y="252.5" as="sourcePoint" />
            <mxPoint x="500" y="210" as="targetPoint" />
          </mxGeometry>
        </mxCell>
        <mxCell id="tVD_9pRI_shdXlnxGO-L-3" value="USDZ&lt;br&gt;" style="edgeLabel;html=1;align=center;verticalAlign=middle;resizable=0;points=[];fontSize=18;spacingBottom=23;rounded=1;labelBackgroundColor=none;fontColor=#1A1A1A;" parent="tVD_9pRI_shdXlnxGO-L-2" vertex="1" connectable="0">
          <mxGeometry x="0.0029" y="2" relative="1" as="geometry">
            <mxPoint x="-28" y="5" as="offset" />
          </mxGeometry>
        </mxCell>
        <mxCell id="tVD_9pRI_shdXlnxGO-L-4" value="" style="endArrow=block;html=1;rounded=1;fontSize=18;exitX=0;exitY=0.5;exitDx=0;exitDy=0;strokeWidth=4;endFill=1;entryX=0.25;entryY=0;entryDx=0;entryDy=0;labelBackgroundColor=none;strokeColor=#736CA8;fontColor=default;" parent="WIyWlLk6GJQsqaUBKTNV-1" source="tVD_9pRI_shdXlnxGO-L-1" target="RQq28LpHc_fImf_RmgB1-0" edge="1">
          <mxGeometry width="50" height="50" relative="1" as="geometry">
            <mxPoint x="290" y="220" as="sourcePoint" />
            <mxPoint x="290" y="30" as="targetPoint" />
            <Array as="points">
              <mxPoint x="150" y="95" />
            </Array>
          </mxGeometry>
        </mxCell>
        <mxCell id="tVD_9pRI_shdXlnxGO-L-5" value="USDZ/ OBJ / PNG textures" style="edgeLabel;html=1;align=center;verticalAlign=middle;resizable=0;points=[];fontSize=18;spacingBottom=23;rounded=1;labelBackgroundColor=none;fontColor=#1A1A1A;" parent="tVD_9pRI_shdXlnxGO-L-4" vertex="1" connectable="0">
          <mxGeometry x="0.0029" y="2" relative="1" as="geometry">
            <mxPoint x="43" y="-7" as="offset" />
          </mxGeometry>
        </mxCell>
        <mxCell id="tVD_9pRI_shdXlnxGO-L-6" value="" style="endArrow=block;html=1;rounded=1;fontSize=18;exitX=1;exitY=0.75;exitDx=0;exitDy=0;strokeWidth=4;endFill=1;entryX=0.75;entryY=0;entryDx=0;entryDy=0;labelBackgroundColor=none;strokeColor=#736CA8;fontColor=default;" parent="WIyWlLk6GJQsqaUBKTNV-1" source="tVD_9pRI_shdXlnxGO-L-1" target="RQq28LpHc_fImf_RmgB1-1" edge="1">
          <mxGeometry width="50" height="50" relative="1" as="geometry">
            <mxPoint x="760" y="210" as="sourcePoint" />
            <mxPoint x="760" y="20" as="targetPoint" />
            <Array as="points">
              <mxPoint x="650" y="123" />
            </Array>
          </mxGeometry>
        </mxCell>
        <mxCell id="tVD_9pRI_shdXlnxGO-L-7" value="USDZ&lt;br&gt;" style="edgeLabel;html=1;align=center;verticalAlign=middle;resizable=0;points=[];fontSize=18;spacingBottom=23;rounded=1;labelBackgroundColor=none;fontColor=#1A1A1A;" parent="tVD_9pRI_shdXlnxGO-L-6" vertex="1" connectable="0">
          <mxGeometry x="0.0029" y="2" relative="1" as="geometry">
            <mxPoint x="-114" y="29" as="offset" />
          </mxGeometry>
        </mxCell>
        <mxCell id="tVD_9pRI_shdXlnxGO-L-8" value="" style="endArrow=block;html=1;rounded=1;fontSize=18;exitX=1;exitY=0.25;exitDx=0;exitDy=0;strokeWidth=4;endFill=1;entryX=0.5;entryY=0;entryDx=0;entryDy=0;labelBackgroundColor=none;strokeColor=#736CA8;fontColor=default;" parent="WIyWlLk6GJQsqaUBKTNV-1" source="tVD_9pRI_shdXlnxGO-L-1" target="RQq28LpHc_fImf_RmgB1-7" edge="1">
          <mxGeometry width="50" height="50" relative="1" as="geometry">
            <mxPoint x="940" y="210" as="sourcePoint" />
            <mxPoint x="940" y="20" as="targetPoint" />
            <Array as="points">
              <mxPoint x="900" y="68" />
            </Array>
          </mxGeometry>
        </mxCell>
        <mxCell id="tVD_9pRI_shdXlnxGO-L-9" value="USDZ&lt;br&gt;" style="edgeLabel;html=1;align=center;verticalAlign=middle;resizable=0;points=[];fontSize=18;spacingBottom=23;rounded=1;labelBackgroundColor=none;fontColor=#1A1A1A;" parent="tVD_9pRI_shdXlnxGO-L-8" vertex="1" connectable="0">
          <mxGeometry x="0.0029" y="2" relative="1" as="geometry">
            <mxPoint x="-262" y="29" as="offset" />
          </mxGeometry>
        </mxCell>
        <mxCell id="4o0ombR6q59JR-e9YiNX-2" value="" style="endArrow=block;html=1;rounded=1;fontSize=18;strokeWidth=4;endFill=1;entryX=0.5;entryY=1;entryDx=0;entryDy=0;labelBackgroundColor=none;strokeColor=#736CA8;fontColor=default;exitX=1;exitY=0.25;exitDx=0;exitDy=0;" edge="1" parent="WIyWlLk6GJQsqaUBKTNV-1" source="RQq28LpHc_fImf_RmgB1-6" target="4o0ombR6q59JR-e9YiNX-0">
          <mxGeometry width="50" height="50" relative="1" as="geometry">
            <mxPoint x="540" y="660" as="sourcePoint" />
            <mxPoint x="630" y="360" as="targetPoint" />
            <Array as="points">
              <mxPoint x="710" y="660" />
            </Array>
          </mxGeometry>
        </mxCell>
        <mxCell id="4o0ombR6q59JR-e9YiNX-4" value="" style="endArrow=block;html=1;rounded=1;fontSize=18;strokeWidth=4;endFill=1;entryX=0.5;entryY=0;entryDx=0;entryDy=0;labelBackgroundColor=none;strokeColor=#736CA8;fontColor=default;" edge="1" parent="WIyWlLk6GJQsqaUBKTNV-1" target="4o0ombR6q59JR-e9YiNX-0">
          <mxGeometry width="50" height="50" relative="1" as="geometry">
            <mxPoint x="480" y="420" as="sourcePoint" />
            <mxPoint x="720" y="640" as="targetPoint" />
            <Array as="points">
              <mxPoint x="710" y="420" />
            </Array>
          </mxGeometry>
        </mxCell>
        <mxCell id="4o0ombR6q59JR-e9YiNX-6" value="" style="endArrow=block;html=1;rounded=1;fontSize=18;exitX=1;exitY=0.5;exitDx=0;exitDy=0;strokeWidth=4;endFill=1;labelBackgroundColor=none;strokeColor=#736CA8;fontColor=default;entryX=0.008;entryY=0.635;entryDx=0;entryDy=0;entryPerimeter=0;" edge="1" parent="WIyWlLk6GJQsqaUBKTNV-1" source="4o0ombR6q59JR-e9YiNX-0" target="RQq28LpHc_fImf_RmgB1-7">
          <mxGeometry width="50" height="50" relative="1" as="geometry">
            <mxPoint x="690" y="305" as="sourcePoint" />
            <mxPoint x="849" y="306" as="targetPoint" />
          </mxGeometry>
        </mxCell>
        <mxCell id="4o0ombR6q59JR-e9YiNX-7" value="Package&lt;br&gt;(visionOS)" style="edgeLabel;html=1;align=center;verticalAlign=middle;resizable=0;points=[];fontSize=18;spacingBottom=52;rounded=1;labelBackgroundColor=none;fontColor=#1A1A1A;" vertex="1" connectable="0" parent="4o0ombR6q59JR-e9YiNX-6">
          <mxGeometry x="0.0029" y="2" relative="1" as="geometry">
            <mxPoint as="offset" />
          </mxGeometry>
        </mxCell>
        <mxCell id="4o0ombR6q59JR-e9YiNX-8" value="" style="endArrow=block;html=1;rounded=1;fontSize=18;exitX=1;exitY=0.75;exitDx=0;exitDy=0;strokeWidth=4;endFill=1;entryX=0.358;entryY=0.007;entryDx=0;entryDy=0;labelBackgroundColor=none;strokeColor=#736CA8;fontColor=default;entryPerimeter=0;" edge="1" parent="WIyWlLk6GJQsqaUBKTNV-1" source="tVD_9pRI_shdXlnxGO-L-1" target="4o0ombR6q59JR-e9YiNX-0">
          <mxGeometry width="50" height="50" relative="1" as="geometry">
            <mxPoint x="490" y="133" as="sourcePoint" />
            <mxPoint x="660" y="250" as="targetPoint" />
            <Array as="points">
              <mxPoint x="690" y="123" />
            </Array>
          </mxGeometry>
        </mxCell>
        <mxCell id="4o0ombR6q59JR-e9YiNX-9" value="USDZ&lt;br&gt;" style="edgeLabel;html=1;align=center;verticalAlign=middle;resizable=0;points=[];fontSize=18;spacingBottom=23;rounded=1;labelBackgroundColor=none;fontColor=#1A1A1A;" vertex="1" connectable="0" parent="4o0ombR6q59JR-e9YiNX-8">
          <mxGeometry x="0.0029" y="2" relative="1" as="geometry">
            <mxPoint x="-114" y="29" as="offset" />
          </mxGeometry>
        </mxCell>
        <mxCell id="4o0ombR6q59JR-e9YiNX-10" value="" style="endArrow=block;html=1;rounded=1;fontSize=18;exitX=0.017;exitY=0.321;exitDx=0;exitDy=0;entryX=1.033;entryY=0.95;entryDx=0;entryDy=0;strokeWidth=4;endFill=1;exitPerimeter=0;labelBackgroundColor=none;strokeColor=#736CA8;fontColor=default;entryPerimeter=0;" edge="1" parent="WIyWlLk6GJQsqaUBKTNV-1" source="4o0ombR6q59JR-e9YiNX-0" target="RQq28LpHc_fImf_RmgB1-0">
          <mxGeometry width="50" height="50" relative="1" as="geometry">
            <mxPoint x="250" y="305" as="sourcePoint" />
            <mxPoint x="570" y="305" as="targetPoint" />
          </mxGeometry>
        </mxCell>
        <mxCell id="4o0ombR6q59JR-e9YiNX-11" value="USDZ&lt;br&gt;" style="edgeLabel;html=1;align=center;verticalAlign=middle;resizable=0;points=[];fontSize=18;spacingBottom=23;rounded=1;labelBackgroundColor=none;fontColor=#1A1A1A;" vertex="1" connectable="0" parent="4o0ombR6q59JR-e9YiNX-10">
          <mxGeometry x="0.0029" y="2" relative="1" as="geometry">
            <mxPoint x="133" y="24" as="offset" />
          </mxGeometry>
        </mxCell>
        <mxCell id="4o0ombR6q59JR-e9YiNX-13" value="" style="endArrow=block;html=1;rounded=1;fontSize=18;strokeWidth=4;endFill=1;labelBackgroundColor=none;strokeColor=#736CA8;fontColor=default;" edge="1" parent="WIyWlLk6GJQsqaUBKTNV-1" target="4o0ombR6q59JR-e9YiNX-12">
          <mxGeometry width="50" height="50" relative="1" as="geometry">
            <mxPoint x="960" y="590" as="sourcePoint" />
            <mxPoint x="1010" y="420" as="targetPoint" />
          </mxGeometry>
        </mxCell>
        <mxCell id="4o0ombR6q59JR-e9YiNX-14" value="" style="endArrow=block;html=1;rounded=1;fontSize=18;exitX=0.5;exitY=1;exitDx=0;exitDy=0;entryX=0.5;entryY=1;entryDx=0;entryDy=0;strokeWidth=4;endFill=1;labelBackgroundColor=none;strokeColor=#736CA8;fontColor=default;" edge="1" parent="WIyWlLk6GJQsqaUBKTNV-1" source="RQq28LpHc_fImf_RmgB1-5" target="4o0ombR6q59JR-e9YiNX-0">
          <mxGeometry width="50" height="50" relative="1" as="geometry">
            <mxPoint x="630" y="250" as="sourcePoint" />
            <mxPoint x="220" y="240" as="targetPoint" />
            <Array as="points">
              <mxPoint x="180" y="780" />
              <mxPoint x="710" y="780" />
            </Array>
          </mxGeometry>
        </mxCell>
      </root>
    </mxGraphModel>
  </diagram>
</mxfile>
